<svg xmlns="http://www.w3.org/2000/svg" version="1.1" xmlns:xlink="http://www.w3.org/1999/xlink" xmlns:svgjs="http://svgjs.com/svgjs" width="1440" height="560" preserveAspectRatio="none" viewBox="0 0 1440 560"><g mask="url(&quot;#SvgjsMask1002&quot;)" fill="none"><rect width="1440" height="560" x="0" y="0" fill="rgba(125, 159, 193, 1)"></rect><path d="M268.07 288.3L333.02 325.8L333.02 400.8L268.07 438.3L203.12 400.8L203.12 325.8zM397.98 63.3L462.93 100.8L462.93 175.8L397.98 213.3L333.02 175.8L333.02 100.8zM657.79 288.3L722.75 325.8L722.75 400.8L657.79 438.3L592.84 400.8L592.84 325.8zM917.61 288.3L982.56 325.8L982.56 400.8L917.61 438.3L852.65 400.8L852.65 325.8zM982.56 175.8L1047.52 213.3L1047.52 288.3L982.56 325.8L917.61 288.3L917.61 213.3zM1112.47 -49.2L1177.42 -11.7L1177.42 63.3L1112.47 100.8L1047.52 63.3L1047.52 -11.7zM1242.38 175.8L1307.33 213.3L1307.33 288.3L1242.38 325.8L1177.42 288.3L1177.42 213.3zM1307.33 288.3L1372.28 325.8L1372.28 400.8L1307.33 438.3L1242.38 400.8L1242.38 325.8zM1307.33 513.3L1372.28 550.8L1372.28 625.8L1307.33 663.3L1242.38 625.8L1242.38 550.8zM1372.29 175.8L1437.24 213.3L1437.24 288.3L1372.29 325.8L1307.33 288.3L1307.33 213.3zM1437.24 513.3L1502.19 550.8L1502.19 625.8L1437.24 663.3L1372.29 625.8L1372.29 550.8zM1502.19 -49.2L1567.15 -11.7L1567.15 63.3L1502.19 100.8L1437.24 63.3L1437.24 -11.7zM1567.15 288.3L1632.1 325.8L1632.1 400.8L1567.15 438.3L1502.19 400.8L1502.19 325.8zM1502.19 400.8L1567.15 438.3L1567.15 513.3L1502.19 550.8L1437.24 513.3L1437.24 438.3z" stroke="#03305d" stroke-width="2"></path><path d="M260.57 288.3 a7.5 7.5 0 1 0 15 0 a7.5 7.5 0 1 0 -15 0zM325.52 325.8 a7.5 7.5 0 1 0 15 0 a7.5 7.5 0 1 0 -15 0zM325.52 400.8 a7.5 7.5 0 1 0 15 0 a7.5 7.5 0 1 0 -15 0zM260.57 438.3 a7.5 7.5 0 1 0 15 0 a7.5 7.5 0 1 0 -15 0zM195.62 400.8 a7.5 7.5 0 1 0 15 0 a7.5 7.5 0 1 0 -15 0zM195.62 325.8 a7.5 7.5 0 1 0 15 0 a7.5 7.5 0 1 0 -15 0zM390.48 63.3 a7.5 7.5 0 1 0 15 0 a7.5 7.5 0 1 0 -15 0zM455.43 100.8 a7.5 7.5 0 1 0 15 0 a7.5 7.5 0 1 0 -15 0zM455.43 175.8 a7.5 7.5 0 1 0 15 0 a7.5 7.5 0 1 0 -15 0zM390.48 213.3 a7.5 7.5 0 1 0 15 0 a7.5 7.5 0 1 0 -15 0zM325.52 175.8 a7.5 7.5 0 1 0 15 0 a7.5 7.5 0 1 0 -15 0zM325.52 100.8 a7.5 7.5 0 1 0 15 0 a7.5 7.5 0 1 0 -15 0zM650.29 288.3 a7.5 7.5 0 1 0 15 0 a7.5 7.5 0 1 0 -15 0zM715.25 325.8 a7.5 7.5 0 1 0 15 0 a7.5 7.5 0 1 0 -15 0zM715.25 400.8 a7.5 7.5 0 1 0 15 0 a7.5 7.5 0 1 0 -15 0zM650.29 438.3 a7.5 7.5 0 1 0 15 0 a7.5 7.5 0 1 0 -15 0zM585.34 400.8 a7.5 7.5 0 1 0 15 0 a7.5 7.5 0 1 0 -15 0zM585.34 325.8 a7.5 7.5 0 1 0 15 0 a7.5 7.5 0 1 0 -15 0zM910.11 288.3 a7.5 7.5 0 1 0 15 0 a7.5 7.5 0 1 0 -15 0zM975.06 325.8 a7.5 7.5 0 1 0 15 0 a7.5 7.5 0 1 0 -15 0zM975.06 400.8 a7.5 7.5 0 1 0 15 0 a7.5 7.5 0 1 0 -15 0zM910.11 438.3 a7.5 7.5 0 1 0 15 0 a7.5 7.5 0 1 0 -15 0zM845.15 400.8 a7.5 7.5 0 1 0 15 0 a7.5 7.5 0 1 0 -15 0zM845.15 325.8 a7.5 7.5 0 1 0 15 0 a7.5 7.5 0 1 0 -15 0zM975.06 175.8 a7.5 7.5 0 1 0 15 0 a7.5 7.5 0 1 0 -15 0zM1040.02 213.3 a7.5 7.5 0 1 0 15 0 a7.5 7.5 0 1 0 -15 0zM1040.02 288.3 a7.5 7.5 0 1 0 15 0 a7.5 7.5 0 1 0 -15 0zM910.11 213.3 a7.5 7.5 0 1 0 15 0 a7.5 7.5 0 1 0 -15 0zM1104.97 -49.2 a7.5 7.5 0 1 0 15 0 a7.5 7.5 0 1 0 -15 0zM1169.92 -11.7 a7.5 7.5 0 1 0 15 0 a7.5 7.5 0 1 0 -15 0zM1169.92 63.3 a7.5 7.5 0 1 0 15 0 a7.5 7.5 0 1 0 -15 0zM1104.97 100.8 a7.5 7.5 0 1 0 15 0 a7.5 7.5 0 1 0 -15 0zM1040.02 63.3 a7.5 7.5 0 1 0 15 0 a7.5 7.5 0 1 0 -15 0zM1040.02 -11.7 a7.5 7.5 0 1 0 15 0 a7.5 7.5 0 1 0 -15 0zM1234.88 175.8 a7.5 7.5 0 1 0 15 0 a7.5 7.5 0 1 0 -15 0zM1299.83 213.3 a7.5 7.5 0 1 0 15 0 a7.5 7.5 0 1 0 -15 0zM1299.83 288.3 a7.5 7.5 0 1 0 15 0 a7.5 7.5 0 1 0 -15 0zM1234.88 325.8 a7.5 7.5 0 1 0 15 0 a7.5 7.5 0 1 0 -15 0zM1169.92 288.3 a7.5 7.5 0 1 0 15 0 a7.5 7.5 0 1 0 -15 0zM1169.92 213.3 a7.5 7.5 0 1 0 15 0 a7.5 7.5 0 1 0 -15 0zM1364.78 325.8 a7.5 7.5 0 1 0 15 0 a7.5 7.5 0 1 0 -15 0zM1364.78 400.8 a7.5 7.5 0 1 0 15 0 a7.5 7.5 0 1 0 -15 0zM1299.83 438.3 a7.5 7.5 0 1 0 15 0 a7.5 7.5 0 1 0 -15 0zM1234.88 400.8 a7.5 7.5 0 1 0 15 0 a7.5 7.5 0 1 0 -15 0zM1299.83 513.3 a7.5 7.5 0 1 0 15 0 a7.5 7.5 0 1 0 -15 0zM1364.78 550.8 a7.5 7.5 0 1 0 15 0 a7.5 7.5 0 1 0 -15 0zM1364.78 625.8 a7.5 7.5 0 1 0 15 0 a7.5 7.5 0 1 0 -15 0zM1299.83 663.3 a7.5 7.5 0 1 0 15 0 a7.5 7.5 0 1 0 -15 0zM1234.88 625.8 a7.5 7.5 0 1 0 15 0 a7.5 7.5 0 1 0 -15 0zM1234.88 550.8 a7.5 7.5 0 1 0 15 0 a7.5 7.5 0 1 0 -15 0zM1364.79 175.8 a7.5 7.5 0 1 0 15 0 a7.5 7.5 0 1 0 -15 0zM1429.74 213.3 a7.5 7.5 0 1 0 15 0 a7.5 7.5 0 1 0 -15 0zM1429.74 288.3 a7.5 7.5 0 1 0 15 0 a7.5 7.5 0 1 0 -15 0zM1364.79 325.8 a7.5 7.5 0 1 0 15 0 a7.5 7.5 0 1 0 -15 0zM1429.74 513.3 a7.5 7.5 0 1 0 15 0 a7.5 7.5 0 1 0 -15 0zM1494.69 550.8 a7.5 7.5 0 1 0 15 0 a7.5 7.5 0 1 0 -15 0zM1494.69 625.8 a7.5 7.5 0 1 0 15 0 a7.5 7.5 0 1 0 -15 0zM1429.74 663.3 a7.5 7.5 0 1 0 15 0 a7.5 7.5 0 1 0 -15 0zM1364.79 625.8 a7.5 7.5 0 1 0 15 0 a7.5 7.5 0 1 0 -15 0zM1364.79 550.8 a7.5 7.5 0 1 0 15 0 a7.5 7.5 0 1 0 -15 0zM1494.69 -49.2 a7.5 7.5 0 1 0 15 0 a7.5 7.5 0 1 0 -15 0zM1559.65 -11.7 a7.5 7.5 0 1 0 15 0 a7.5 7.5 0 1 0 -15 0zM1559.65 63.3 a7.5 7.5 0 1 0 15 0 a7.5 7.5 0 1 0 -15 0zM1494.69 100.8 a7.5 7.5 0 1 0 15 0 a7.5 7.5 0 1 0 -15 0zM1429.74 63.3 a7.5 7.5 0 1 0 15 0 a7.5 7.5 0 1 0 -15 0zM1429.74 -11.7 a7.5 7.5 0 1 0 15 0 a7.5 7.5 0 1 0 -15 0zM1559.65 288.3 a7.5 7.5 0 1 0 15 0 a7.5 7.5 0 1 0 -15 0zM1624.6 325.8 a7.5 7.5 0 1 0 15 0 a7.5 7.5 0 1 0 -15 0zM1624.6 400.8 a7.5 7.5 0 1 0 15 0 a7.5 7.5 0 1 0 -15 0zM1559.65 438.3 a7.5 7.5 0 1 0 15 0 a7.5 7.5 0 1 0 -15 0zM1494.69 400.8 a7.5 7.5 0 1 0 15 0 a7.5 7.5 0 1 0 -15 0zM1494.69 325.8 a7.5 7.5 0 1 0 15 0 a7.5 7.5 0 1 0 -15 0zM1559.65 513.3 a7.5 7.5 0 1 0 15 0 a7.5 7.5 0 1 0 -15 0zM1429.74 438.3 a7.5 7.5 0 1 0 15 0 a7.5 7.5 0 1 0 -15 0z" fill="#03305d"></path><path d="M2.85 417.77L46.15 442.77L46.15 492.77L2.85 517.77L-40.45 492.77L-40.45 442.77zM89.45 117.77L132.76 142.77L132.76 192.77L89.45 217.77L46.15 192.77L46.15 142.77zM132.76 192.77L176.06 217.77L176.06 267.77L132.76 292.77L89.45 267.77L89.45 217.77zM89.45 417.77L132.76 442.77L132.76 492.77L89.45 517.77L46.15 492.77L46.15 442.77zM132.76 492.77L176.06 517.77L176.06 567.77L132.76 592.77L89.45 567.77L89.45 517.77zM176.06 -32.23L219.36 -7.23L219.36 42.77L176.06 67.77L132.76 42.77L132.76 -7.23zM262.67 -32.23L305.97 -7.23L305.97 42.77L262.67 67.77L219.36 42.77L219.36 -7.23zM305.97 192.77L349.27 217.77L349.27 267.77L305.97 292.77L262.67 267.77L262.67 217.77zM305.97 492.77L349.27 517.77L349.27 567.77L305.97 592.77L262.67 567.77L262.67 517.77zM435.88 117.77L479.18 142.77L479.18 192.77L435.88 217.77L392.57 192.77L392.57 142.77zM565.78 492.77L609.09 517.77L609.09 567.77L565.78 592.77L522.48 567.77L522.48 517.77zM695.69 117.77L738.99 142.77L738.99 192.77L695.69 217.77L652.39 192.77L652.39 142.77zM912.2 42.77L955.51 67.77L955.51 117.77L912.2 142.77L868.9 117.77L868.9 67.77zM868.9 417.77L912.2 442.77L912.2 492.77L868.9 517.77L825.6 492.77L825.6 442.77zM1085.41 342.77L1128.71 367.77L1128.71 417.77L1085.41 442.77L1042.11 417.77L1042.11 367.77zM1215.32 267.77L1258.62 292.77L1258.62 342.77L1215.32 367.77L1172.02 342.77L1172.02 292.77zM1215.32 417.77L1258.62 442.77L1258.62 492.77L1215.32 517.77L1172.02 492.77L1172.02 442.77z" stroke="rgba(6, 80, 156, 0.93)" stroke-width="2"></path></g><defs><mask id="SvgjsMask1002"><rect width="1440" height="560" fill="#ffffff"></rect></mask></defs></svg>